<svg xmlns="http://www.w3.org/2000/svg" viewBox="0 0 365.41 42.38"><defs><style>.cls-1{fill:#2a94c7;}.cls-2{fill:#b5ae93;}.cls-3{fill:#c8c2ac;}.cls-4{fill:#4cb2cf;}</style></defs><title>lomg-boi</title><g id="Layer_4" data-name="Layer 4"><path class="cls-1" d="M73.2,39.43a2.48,2.48,0,0,1-.74-1.82V4.44A2.46,2.46,0,0,1,73.2,2.6,2.51,2.51,0,0,1,75,1.89H97.16A2.5,2.5,0,0,1,99,2.55a2.31,2.31,0,0,1,.69,1.74A2.16,2.16,0,0,1,99,6a2.58,2.58,0,0,1-1.81.64H77.56V18.5H91.62a2.52,2.52,0,0,1,1.79.66,2.38,2.38,0,0,1,0,3.39,2.52,2.52,0,0,1-1.79.66H77.56v14.4a2.48,2.48,0,0,1-.74,1.82,2.61,2.61,0,0,1-3.62,0Z"/><path class="cls-1" d="M128.71,37.86a2.23,2.23,0,0,1-.66,1.64,2.41,2.41,0,0,1-1.79.66,2.48,2.48,0,0,1-2.2-1.22l-8.43-13.53h-7.15v12.2a2.54,2.54,0,0,1-.71,1.82,2.65,2.65,0,0,1-3.65,0,2.48,2.48,0,0,1-.74-1.82V4.44a2.46,2.46,0,0,1,.74-1.84,2.51,2.51,0,0,1,1.81-.71h8.82a13.66,13.66,0,0,1,6.49,1.52,11,11,0,0,1,4.46,4.26A12.29,12.29,0,0,1,127.29,14a11,11,0,0,1-1.76,6.17,11.1,11.1,0,0,1-4.8,4.07l7.49,12.05A3,3,0,0,1,128.71,37.86Zm-14-17.15a8,8,0,0,0,5.49-1.89A6.19,6.19,0,0,0,122.39,14a7,7,0,0,0-2.15-5.3,7.64,7.64,0,0,0-5.49-2.05h-6.27V20.71Z"/><path class="cls-1" d="M143.11,39.33a12.1,12.1,0,0,1-4.61-2.7,2.08,2.08,0,0,1-.63-1.52,2.27,2.27,0,0,1,1-1.91,3,3,0,0,1,1.71-.68,2.6,2.6,0,0,1,1.86.88,7.52,7.52,0,0,0,2.8,1.79,10.49,10.49,0,0,0,4,.76,8.43,8.43,0,0,0,4.34-.93,2.83,2.83,0,0,0,1.55-2.5A3,3,0,0,0,153.55,30a15.05,15.05,0,0,0-5.15-1.69c-6.27-1.2-9.41-3.79-9.41-7.74a6.12,6.12,0,0,1,1.42-4.07A8.59,8.59,0,0,1,144.14,14a14.17,14.17,0,0,1,4.9-.84,15.17,15.17,0,0,1,5.71,1,9.87,9.87,0,0,1,4,2.84,2.55,2.55,0,0,1,.64,1.57,2,2,0,0,1-.84,1.52,2.27,2.27,0,0,1-1.37.39,3.33,3.33,0,0,1-2.3-.93,7.31,7.31,0,0,0-2.6-1.59,10.39,10.39,0,0,0-3.33-.47,8,8,0,0,0-3.7.76,2.35,2.35,0,0,0-1.44,2.13,2.75,2.75,0,0,0,.48,1.65,4.33,4.33,0,0,0,1.87,1.22,23,23,0,0,0,4,1.1q5.34,1.08,7.57,3a6.25,6.25,0,0,1,2.23,4.95,7.18,7.18,0,0,1-1.23,4.09,8.14,8.14,0,0,1-3.6,2.89,13.93,13.93,0,0,1-5.71,1.06A19,19,0,0,1,143.11,39.33Z"/><path class="cls-1" d="M184.51,38.1a2.28,2.28,0,0,1-.88,1.82,2.46,2.46,0,0,1-1.57.58,2.12,2.12,0,0,1-1.76-.88L171,28.11l-2.45,2.15v7.5a2.4,2.4,0,1,1-4.8,0V4.29a2.37,2.37,0,0,1,.66-1.74,2.62,2.62,0,0,1,3.48,0,2.37,2.37,0,0,1,.66,1.74v20L180.45,13.6A2.08,2.08,0,0,1,182,13a2,2,0,0,1,1.66.78,2.15,2.15,0,0,1-.14,3.19l-9,8L184,36.63A2.12,2.12,0,0,1,184.51,38.1Z"/><path class="cls-1" d="M188,8a3.1,3.1,0,0,1-1-2.28,3.08,3.08,0,0,1,1-2.27,3.08,3.08,0,0,1,2.28-1,3.11,3.11,0,0,1,2.28,1,3.11,3.11,0,0,1,.95,2.27A3.13,3.13,0,0,1,192.53,8a3.11,3.11,0,0,1-2.28,1A3.08,3.08,0,0,1,188,8Zm.49,31.41a2.4,2.4,0,0,1-.71-1.79V15.86a2.4,2.4,0,0,1,.71-1.82,2.72,2.72,0,0,1,3.6,0,2.47,2.47,0,0,1,.69,1.82v21.8a2.46,2.46,0,0,1-.69,1.79,2.64,2.64,0,0,1-3.6,0Z"/><path class="cls-1" d="M217.1,14.58a10.37,10.37,0,0,1,4.21,4.29,14.16,14.16,0,0,1,1.52,6.79V37.71a2.5,2.5,0,1,1-5,0v-12q0-4-2.13-6a7.88,7.88,0,0,0-5.66-2,8.46,8.46,0,0,0-3.75.83,6.66,6.66,0,0,0-2.64,2.26,5.57,5.57,0,0,0-1,3.18V37.71A2.49,2.49,0,0,1,202,39.5a2.52,2.52,0,0,1-4.32-1.79V15.86A2.44,2.44,0,0,1,198.4,14a2.49,2.49,0,0,1,4.29,1.82v.54A10.85,10.85,0,0,1,206.42,14a12.34,12.34,0,0,1,4.6-.86A12.49,12.49,0,0,1,217.1,14.58Z"/><path class="cls-1" d="M247.25,35.85a2.56,2.56,0,0,1,.62,1.76,2.22,2.22,0,0,1-.81,1.77,3.11,3.11,0,0,1-2.09.68h-.88a8,8,0,0,1-4.38-1.25,8.59,8.59,0,0,1-3.11-3.4,10.23,10.23,0,0,1-1.13-4.85V18.45h-2.26a2.35,2.35,0,0,1-1.66-.58,1.93,1.93,0,0,1-.64-1.47,2,2,0,0,1,.64-1.57,2.36,2.36,0,0,1,1.66-.59h2.26V7.18a2.42,2.42,0,0,1,.68-1.76,2.46,2.46,0,0,1,4.22,1.76v7.06h4.16a2.38,2.38,0,0,1,1.67.59,2,2,0,0,1,.64,1.57,2,2,0,0,1-.64,1.47,2.38,2.38,0,0,1-1.67.58h-4.16V30.56a5,5,0,0,0,1.08,3.28,3.28,3.28,0,0,0,2.64,1.32h1.67A1.91,1.91,0,0,1,247.25,35.85Z"/><path class="cls-1" d="M273.34,27.79a2.21,2.21,0,0,1-1.61.61H253.11a8.62,8.62,0,0,0,3.11,5.54,9.63,9.63,0,0,0,6.3,2.11,9.5,9.5,0,0,0,3.06-.54,9,9,0,0,0,2.62-1.33,2.55,2.55,0,0,1,1.62-.54,2.14,2.14,0,0,1,1.47.49,2.17,2.17,0,0,1,.88,1.67,1.76,1.76,0,0,1-.79,1.47,13.69,13.69,0,0,1-4.14,2.16,15,15,0,0,1-11.93-.91,12.62,12.62,0,0,1-5-4.83,13.71,13.71,0,0,1-1.79-7,14.48,14.48,0,0,1,1.69-7A12.28,12.28,0,0,1,255,14.8a13.37,13.37,0,0,1,6.83-1.74,12.33,12.33,0,0,1,6.52,1.67,10.94,10.94,0,0,1,4.21,4.66A15.34,15.34,0,0,1,274,26.25,2,2,0,0,1,273.34,27.79ZM256,19.24a8.81,8.81,0,0,0-2.81,5.24h16.31A8.66,8.66,0,0,0,267,19.24a7.16,7.16,0,0,0-5.24-2A8.48,8.48,0,0,0,256,19.24Z"/><path class="cls-1" d="M281,39.23a12.09,12.09,0,0,1-4.61-2.69,2.12,2.12,0,0,1-.64-1.52,2.28,2.28,0,0,1,1-1.91,3,3,0,0,1,1.72-.69,2.62,2.62,0,0,1,1.86.88,7.56,7.56,0,0,0,2.79,1.79,10.39,10.39,0,0,0,4,.76,8.46,8.46,0,0,0,4.34-.93,2.81,2.81,0,0,0,1.54-2.5,2.94,2.94,0,0,0-1.52-2.52,14.69,14.69,0,0,0-5.14-1.69q-9.4-1.82-9.41-7.75a6,6,0,0,1,1.42-4.06,8.61,8.61,0,0,1,3.73-2.5,14.13,14.13,0,0,1,4.9-.84,15.08,15.08,0,0,1,5.7,1,9.76,9.76,0,0,1,4,2.85,2.5,2.5,0,0,1,.64,1.56,1.94,1.94,0,0,1-.84,1.52,2.29,2.29,0,0,1-1.37.39,3.33,3.33,0,0,1-2.3-.93,7.4,7.4,0,0,0-2.6-1.59,10.5,10.5,0,0,0-3.33-.46,8,8,0,0,0-3.7.75,2.34,2.34,0,0,0-1.45,2.14,2.73,2.73,0,0,0,.49,1.64,4.35,4.35,0,0,0,1.86,1.22,23.44,23.44,0,0,0,4,1.11c3.56.71,6.09,1.71,7.57,3a6.22,6.22,0,0,1,2.23,4.95,7.23,7.23,0,0,1-1.22,4.09,8.23,8.23,0,0,1-3.6,2.9,14.1,14.1,0,0,1-5.71,1A18.74,18.74,0,0,1,281,39.23Z"/><path class="cls-1" d="M315.85,35.85a2.55,2.55,0,0,1,.61,1.76,2.24,2.24,0,0,1-.8,1.77,3.11,3.11,0,0,1-2.09.68h-.88a8,8,0,0,1-4.38-1.25,8.61,8.61,0,0,1-3.12-3.4,10.35,10.35,0,0,1-1.12-4.85V18.45h-2.26a2.35,2.35,0,0,1-1.66-.58,1.93,1.93,0,0,1-.64-1.47,2,2,0,0,1,.64-1.57,2.36,2.36,0,0,1,1.66-.59h2.26V7.18a2.45,2.45,0,1,1,4.9,0v7.06h4.16a2.38,2.38,0,0,1,1.67.59,2,2,0,0,1,.63,1.57,2,2,0,0,1-.63,1.47,2.38,2.38,0,0,1-1.67.58H309V30.56A5.07,5.07,0,0,0,310,33.84a3.3,3.3,0,0,0,2.65,1.32h1.67A1.93,1.93,0,0,1,315.85,35.85Z"/><path class="cls-1" d="M342.87,27.79a2.21,2.21,0,0,1-1.61.61H322.64a8.62,8.62,0,0,0,3.11,5.54,9.94,9.94,0,0,0,9.36,1.57,9,9,0,0,0,2.62-1.33,2.53,2.53,0,0,1,1.62-.54,2.14,2.14,0,0,1,1.47.49,2.17,2.17,0,0,1,.88,1.67,1.76,1.76,0,0,1-.79,1.47,13.69,13.69,0,0,1-4.14,2.16,14.93,14.93,0,0,1-4.73.83,14.78,14.78,0,0,1-7.2-1.74,12.62,12.62,0,0,1-5-4.83,13.71,13.71,0,0,1-1.79-7,14.48,14.48,0,0,1,1.69-7,12.32,12.32,0,0,1,4.7-4.85,13.43,13.43,0,0,1,6.84-1.74,12.33,12.33,0,0,1,6.52,1.67A10.94,10.94,0,0,1,342,19.39a15.34,15.34,0,0,1,1.47,6.86A2,2,0,0,1,342.87,27.79ZM325.5,19.24a8.81,8.81,0,0,0-2.81,5.24H339a8.66,8.66,0,0,0-2.45-5.24,7.16,7.16,0,0,0-5.24-2A8.48,8.48,0,0,0,325.5,19.24Z"/><path class="cls-1" d="M363.94,13.75a2.28,2.28,0,0,1,1.47,2,1.48,1.48,0,0,1-.05.49,1.89,1.89,0,0,1-2,1.57,3.79,3.79,0,0,1-.73-.1,19.16,19.16,0,0,0-3.19-.34,9.29,9.29,0,0,0-5.68,1.61,5.18,5.18,0,0,0-2.16,4.37v14.3a2.52,2.52,0,0,1-.61,1.82,2.46,2.46,0,0,1-1.84.63,2.51,2.51,0,0,1-1.81-.61,2.46,2.46,0,0,1-.64-1.84V15.71a2.46,2.46,0,0,1,.64-1.81,2.44,2.44,0,0,1,1.81-.64,2.16,2.16,0,0,1,2.45,2.45v.93A10.32,10.32,0,0,1,355.27,14a10.9,10.9,0,0,1,4.61-1A8.74,8.74,0,0,1,363.94,13.75Z"/></g><g id="Layer_6" data-name="Layer 6"><path class="cls-2" d="M45.94,7.66A134.63,134.63,0,0,0,25.9,0L7.1,25.25,0,27.5l5.68,7.44L7,36.66l4.36,5.72A29,29,0,0,1,23.59,39h.71a27.1,27.1,0,0,1,13,3.39,42.73,42.73,0,0,1,11.53-15.1,30.24,30.24,0,0,1,18.63-7A145.51,145.51,0,0,0,45.94,7.66ZM24.3,32.22c-.27,0-.55,0-.82,0A30.66,30.66,0,0,0,12.76,34.5L10.11,31,11,29.89,25.78,10l6.27,23.24A29.88,29.88,0,0,0,24.3,32.22ZM45.94,21.56a45.26,45.26,0,0,0-8.82,9.62L31,8.63a131.26,131.26,0,0,1,13,5.37c2.51,1.18,5,2.45,7.43,3.82A38.16,38.16,0,0,0,45.94,21.56Z"/><path class="cls-3" d="M51.5,17.82a38.16,38.16,0,0,0-5.56,3.74,45.45,45.45,0,0,0-8.82,9.61L31.5,10.3a15.76,15.76,0,0,1,5.64,4.41A16.13,16.13,0,0,0,38.3,16.3,7.93,7.93,0,0,0,45.17,18,7.06,7.06,0,0,0,48.5,16.2C49.51,16.73,50.51,17.26,51.5,17.82Z"/><path class="cls-3" d="M28.67,20.72a2.66,2.66,0,0,1-1.53.47,2.74,2.74,0,0,1,0-5.47h.19l-1.5-5.57,0-.15-.18.24-6.13,8.24c-.48,4.69,1.6,9.51-.41,10.75-1.52.92-3.78-1.14-6.1-2l-2,2.69L10.11,31l2.65,3.46a30.71,30.71,0,0,1,10.72-2.26h.82a29.87,29.87,0,0,1,7.75,1Zm-6.55,2.91a1.22,1.22,0,1,1,1.22-1.22A1.22,1.22,0,0,1,22.12,23.63Z"/><path class="cls-4" d="M28.67,20.72a2.66,2.66,0,0,1-1.53.47,2.74,2.74,0,0,1,0-5.47h.19Z"/><path class="cls-1" d="M29.88,18.45a2.72,2.72,0,0,1-1.21,2.27l-1.34-5A2.74,2.74,0,0,1,29.88,18.45Z"/><path class="cls-4" d="M23.34,22.41a1.22,1.22,0,1,1-2.44,0,1.22,1.22,0,0,1,2.44,0Z"/><circle class="cls-1" cx="54.61" cy="17.27" r="1.56"/><path class="cls-4" d="M19.06,29.23c-1.52.92-3.78-1.14-6.1-2l6.51-8.72C19,23.17,21.07,28,19.06,29.23Z"/><path class="cls-4" d="M48.5,16.2A7.06,7.06,0,0,1,45.17,18,7.93,7.93,0,0,1,38.3,16.3a16.13,16.13,0,0,1-1.16-1.59A15.76,15.76,0,0,0,31.5,10.3l-.45-1.66a129.62,129.62,0,0,1,13,5.36C45.56,14.7,47,15.44,48.5,16.2Z"/><path class="cls-1" d="M51.56,10.5a10.54,10.54,0,0,1-3.06,5.7c-1.46-.76-2.94-1.5-4.43-2.2a129.62,129.62,0,0,0-13-5.36l.45,1.66a8,8,0,0,0-3.43-.62,7.71,7.71,0,0,0-2.24.47l-.23.09a10.4,10.4,0,0,0-4.76,4,9.31,9.31,0,0,0-1.37,4.2L13,27.2A4,4,0,0,0,10,27c-2.47,1-3.25,5-3.46,8.91l-.3-.28c-.29-.36-.54-.7-.57-.73L0,27.5l7.1-2.25L25.9,0a134.63,134.63,0,0,1,20,7.66Q48.85,9,51.56,10.5Z"/></g></svg>