<?xml version="1.0" encoding="utf-8"?>
<!-- Generator: Adobe Illustrator 19.0.0, SVG Export Plug-In . SVG Version: 6.00 Build 0)  -->
<svg version="1.1" id="Layer_1" xmlns="http://www.w3.org/2000/svg" xmlns:xlink="http://www.w3.org/1999/xlink" x="0px" y="0px"
	 viewBox="-554 930.8 666.7 141.2" style="enable-background:new -554 930.8 666.7 141.2;" xml:space="preserve">
<style type="text/css">
	.st0{display:none;}
	.st1{display:inline;}
	.st2{fill:#2A94C7;}
	.st3{fill:#5669A6;}
	.st4{fill:#99AAB5;}
	.st5{fill:#BED2E0;}
	.st6{fill:#7289DA;}
	.st7{fill:#231F20;}
</style>
<g id="XMLID_46_" class="st0">
	<g id="XMLID_60_" class="st1">
		<path id="XMLID_64_" class="st2" d="M-310.3,1069.7c-1.8-1.8-2.7-4-2.7-6.6v-120c0-2.7,0.9-4.9,2.7-6.6c1.8-1.7,4-2.6,6.6-2.6
			h80.1c2.7,0,4.9,0.8,6.6,2.4c1.7,1.6,2.5,3.7,2.5,6.3c0,2.5-0.8,4.5-2.5,6s-3.8,2.3-6.6,2.3h-70.9V994h50.9c2.6,0,4.8,0.8,6.5,2.4
			c1.7,1.6,2.6,3.6,2.6,6.1s-0.9,4.5-2.6,6.1s-3.9,2.4-6.5,2.4h-50.9v52.1c0,2.6-0.9,4.8-2.7,6.6c-1.8,1.8-4,2.7-6.6,2.7
			C-306.4,1072.4-308.5,1071.5-310.3,1069.7z"/>
		<path id="XMLID_61_" class="st2" d="M-109.5,1064.1c0,2.4-0.8,4.3-2.4,5.9s-3.8,2.4-6.5,2.4c-3.4,0-6.1-1.5-8-4.4l-30.5-48.9h-3.1
			h-22.7v44.1c0,2.6-0.9,4.8-2.6,6.6c-1.7,1.8-3.9,2.7-6.6,2.7c-2.6,0-4.8-0.9-6.6-2.7c-1.8-1.8-2.7-4-2.7-6.6v-120
			c0-2.7,0.9-4.9,2.7-6.6c1.8-1.7,4-2.6,6.6-2.6h31.9c8.7,0,16.6,1.8,23.5,5.5c6.9,3.7,12.3,8.8,16.1,15.4
			c3.8,6.6,5.8,14.2,5.8,22.7c0,8.4-2.1,15.8-6.4,22.3s-10,11.4-17.4,14.7l27.1,43.6C-110.1,1060.1-109.5,1062.1-109.5,1064.1z
			 M-160,1002c8,0,14.6-2.3,19.8-6.8c5.2-4.5,7.8-10.4,7.8-17.6c0-7.8-2.6-14.2-7.8-19.1c-5.2-5-11.8-7.4-19.8-7.4h-22.7v51
			L-160,1002L-160,1002z"/>
	</g>
	<g id="XMLID_47_" class="st1">
		<path id="XMLID_58_" class="st2" d="M-14.2,1056.5c1.5,1.7,2.3,3.9,2.3,6.5c0,2.7-1,4.8-3,6.5s-4.5,2.5-7.7,2.5h-3.3
			c-5.9,0-11.3-1.5-16.2-4.6c-4.9-3.1-8.7-7.3-11.5-12.6c-2.8-5.3-4.2-11.3-4.2-17.9v-44.6H-66c-2.5,0-4.6-0.7-6.1-2.2
			c-1.6-1.4-2.4-3.3-2.4-5.4c0-2.4,0.8-4.3,2.4-5.8c1.6-1.4,3.6-2.2,6.1-2.2h8.3v-26c0-2.7,0.8-4.8,2.5-6.5c1.7-1.7,3.9-2.5,6.5-2.5
			s4.8,0.8,6.5,2.5c1.7,1.7,2.5,3.9,2.5,6.5v26h15.4c2.5,0,4.6,0.7,6.1,2.2c1.6,1.4,2.4,3.4,2.4,5.8c0,2.2-0.8,4-2.4,5.4
			c-1.6,1.4-3.6,2.2-6.1,2.2h-15.4v44.7c0,4.8,1.3,8.9,4,12.1c2.6,3.3,5.9,4.9,9.8,4.9h6.1C-17.5,1054-15.7,1054.8-14.2,1056.5z"/>
		<path id="XMLID_55_" class="st2" d="M15.2,1066.3c-7.6-4.3-13.5-10.2-17.7-17.8s-6.3-16.2-6.3-25.9c0-9.8,2.1-18.4,6.3-26
			s10.1-13.5,17.7-17.8c7.6-4.3,16.2-6.4,25.9-6.4c9.5,0,18.1,2.1,25.6,6.4s13.4,10.2,17.7,17.8s6.4,16.3,6.4,26
			c0,9.6-2.1,18.3-6.3,25.9s-10.1,13.5-17.6,17.8c-7.5,4.3-16.1,6.4-25.8,6.4C31.4,1072.8,22.8,1070.6,15.2,1066.3z M57.6,1052.1
			c4.9-2.9,8.7-6.9,11.4-12s4.1-10.9,4.1-17.4c0-6.5-1.4-12.4-4.1-17.5c-2.7-5.2-6.5-9.2-11.4-12.1c-4.9-2.9-10.4-4.3-16.5-4.3
			s-11.7,1.4-16.5,4.3c-4.9,2.9-8.7,6.9-11.5,12.1c-2.8,5.2-4.2,11-4.2,17.5c0,6.5,1.4,12.3,4.2,17.4s6.6,9.1,11.5,12
			s10.4,4.3,16.5,4.3C47.2,1056.5,52.7,1055,57.6,1052.1z"/>
		<path id="XMLID_52_" class="st2" d="M122.8,1066.3c-7.6-4.3-13.5-10.2-17.7-17.8s-6.3-16.2-6.3-25.9c0-9.8,2.1-18.4,6.3-26
			s10.1-13.5,17.7-17.8c7.6-4.3,16.2-6.4,25.9-6.4c9.5,0,18.1,2.1,25.6,6.4s13.4,10.2,17.7,17.8s6.4,16.3,6.4,26
			c0,9.6-2.1,18.3-6.3,25.9s-10.1,13.5-17.6,17.8c-7.5,4.3-16.1,6.4-25.8,6.4C139,1072.8,130.4,1070.6,122.8,1066.3z M165.2,1052.1
			c4.9-2.9,8.7-6.9,11.4-12s4.1-10.9,4.1-17.4c0-6.5-1.4-12.4-4.1-17.5c-2.7-5.2-6.5-9.2-11.4-12.1c-4.9-2.9-10.4-4.3-16.5-4.3
			s-11.7,1.4-16.5,4.3c-4.9,2.9-8.7,6.9-11.5,12.1c-2.8,5.2-4.2,11-4.2,17.5c0,6.5,1.4,12.3,4.2,17.4s6.6,9.1,11.5,12
			s10.4,4.3,16.5,4.3C154.8,1056.5,160.3,1055,165.2,1052.1z"/>
		<path id="XMLID_50_" class="st2" d="M220.9,1067.8c-4.2-2.8-7.4-6.8-9.7-11.9s-3.4-10.9-3.4-17.3v-98.8c0-2.7,0.8-4.8,2.5-6.5
			s3.9-2.5,6.5-2.5s4.8,0.8,6.5,2.5s2.5,3.9,2.5,6.5v98.7c0,4.5,0.8,8.1,2.5,11s3.9,4.3,6.5,4.3h4.5c2.4,0,4.4,0.8,5.9,2.5
			c1.5,1.7,2.3,3.9,2.3,6.5c0,2.7-1.1,4.8-3.4,6.5c-2.3,1.7-5.2,2.5-8.9,2.5h-0.4C229.7,1072,225.1,1070.6,220.9,1067.8z"/>
		<path id="XMLID_48_" class="st2" d="M274,1069c-7.2-2.5-12.9-5.8-17-9.9c-1.6-1.6-2.3-3.4-2.3-5.6c0-2.9,1.2-5.2,3.6-7.1
			c2.3-1.7,4.4-2.5,6.3-2.5c2.4,0,4.7,1.1,6.9,3.3c2.3,2.5,5.7,4.7,10.3,6.6c4.6,1.9,9.5,2.8,14.6,2.8c6.9,0,12.2-1.1,16-3.4
			c3.8-2.3,5.7-5.4,5.7-9.2c0-3.7-1.9-6.8-5.6-9.3c-3.7-2.5-10.1-4.5-19-6.2c-23.1-4.5-34.7-14-34.7-28.6c0-5.9,1.7-10.9,5.2-15
			c3.5-4.1,8.1-7.2,13.7-9.2c5.7-2,11.7-3.1,18.1-3.1c7.8,0,14.9,1.3,21.1,3.8c6.2,2.5,11.1,6,14.7,10.5c1.6,1.9,2.4,3.9,2.4,5.8
			c0,2.1-1,3.9-3.1,5.6c-1.3,1-3,1.4-5.1,1.4c-3.1,0-6-1.1-8.5-3.4c-3-2.8-6.2-4.7-9.6-5.9c-3.4-1.1-7.5-1.7-12.3-1.7
			c-5.5,0-10.1,0.9-13.7,2.8c-3.6,1.9-5.3,4.5-5.3,7.9c0,2.4,0.6,4.4,1.8,6.1c1.2,1.6,3.5,3.1,6.9,4.5s8.3,2.7,14.6,4.1
			c13.1,2.7,22.5,6.3,27.9,11c5.5,4.7,8.2,10.8,8.2,18.3c0,5.5-1.5,10.6-4.5,15.1s-7.4,8.1-13.3,10.7c-5.8,2.6-12.9,3.9-21.1,3.9
			C288.9,1072.8,281.2,1071.5,274,1069z"/>
	</g>
</g>
<g id="XMLID_25_">
	<path id="XMLID_44_" class="st3" d="M-429.3,1028.8c-1.9,2.5-3.8,5-5.6,7.6l-3.4-12.8l-21.4-12.1l8.5,31.5l0,0
		c-3.1-0.8-6.1-1.5-9.2-2c-1-0.2-2.1-0.3-3.1-0.5c-0.5-0.1-1-0.1-1.6-0.2c-1.6-0.2-3.1-0.3-4.7-0.4c-0.5,0-1-0.1-1.6-0.1
		c-1.6-0.1-3.1-0.1-4.7-0.1c-0.9,0-1.8,0-2.7,0c-2.9,0.1-5.9,0.3-8.8,0.6c-1.5,0.2-2.9,0.4-4.4,0.6c-1.3,0.2-2.7,0.5-4,0.8
		c-1.3,0.3-2.7,0.6-4,0.9c-0.9,0.2-1.8,0.5-2.7,0.7c-0.7,0.2-1.4,0.4-2.1,0.6c-1.4,0.4-2.8,0.9-4.2,1.4c-1.4,0.5-2.8,1-4.2,1.6
		l-8.5-11.1l2.7-3.7l6.4-8.6l20.9-28l1.2-1.7l-16.5-9.4l-24.2,33l-22.8,7.3c6.1,8,12.1,15.9,18.2,23.9c0,0,0.2,0.3,0.5,0.6
		c0.1,0.1,0.2,0.2,0.2,0.3s0.1,0.1,0.2,0.2c0.1,0.1,0.2,0.3,0.3,0.4c0.2,0.2,0.4,0.5,0.6,0.8c1.1,1.5,2.4,3.1,2.4,3.2
		c1.9,2.5,12.2,15.9,14,18.4c10.4-5.5,23.6-10,39.3-10.8c0.8,0,1.5,0,2.3,0c18.7,0,33.4,6.4,41.5,10.9c3.8-8.2,10.8-21.2,22-34
		L-429.3,1028.8z"/>
	<path id="XMLID_12_" class="st4" d="M-337.7,1001.5c-10.6,0.2-34.9,2.4-59.8,22.4c-5.7,4.6-10.7,9.5-15,14.5l-16.8-9.6
		c6.9-8.8,14.5-16.6,22.7-23.2c0.7-0.6,1.5-1.2,2.3-1.8c0.7-0.5,1.3-1,2-1.5c0.4-0.3,0.8-0.6,1.3-0.9c0.8-0.6,1.5-1.1,2.3-1.6
		c0.5-0.3,1-0.7,1.5-1c0.5-0.4,1.1-0.7,1.6-1.1c1.6-1,3.2-2,4.8-2.9c0.7-0.4,1.5-0.8,2.2-1.2c-1.2-0.7-2.4-1.3-3.6-2
		c-1.2-0.6-2.4-1.3-3.6-1.9c-0.8-0.4-1.6-0.9-2.4-1.3c-0.3-0.2-0.6-0.3-0.9-0.5c-0.3-0.2-0.6-0.3-0.9-0.5c-0.6-0.3-1.2-0.6-1.8-0.9
		c-1.1-0.6-2.2-1.1-3.4-1.7s-2.3-1.1-3.5-1.7c-0.1-0.1-0.2-0.1-0.3-0.2c-0.4-0.2-0.8-0.4-1.2-0.6c-0.8-0.4-1.6-0.8-2.4-1.2
		c-13.7-6.5-27.7-12.3-41.8-17.2l0,0l1.4,5.3l14.6,54.2l-21.3-11.9l-2.3-8.6l-4.3-16l-4.8-17.9l-0.1-0.5l-0.6,0.8l-18.5,24.7
		l-16.5-9.4l35.9-48.2l0,0c19.3,5.6,41.1,13.5,64.3,24.6C-380,973.7-357,987.9-337.7,1001.5z"/>
	<g id="XMLID_38_">
		<polygon id="XMLID_11_" class="st5" points="-459.7,1011.5 -490.3,994 -471.9,969.3 -471.3,968.5 -471.1,969 -466.3,986.9 
			-462,1002.9 		"/>
		<path id="XMLID_10_" class="st6" d="M-451.2,1043.1c-3.1-0.8-6.1-1.5-9.2-2c-1-0.2-2.1-0.3-3.1-0.5c-0.5-0.1-1-0.1-1.6-0.2
			c-1.6-0.2-3.1-0.3-4.7-0.4c-0.5,0-1-0.1-1.6-0.1c-1.6-0.1-3.1-0.1-4.7-0.1c-0.9,0-1.8,0-2.7,0c-2.9,0.1-5.9,0.3-8.8,0.6
			c-1.5,0.2-2.9,0.4-4.4,0.6c-1.3,0.2-2.7,0.5-4,0.8c-1.3,0.3-2.7,0.6-4,0.9c-0.9,0.2-1.8,0.5-2.7,0.7c-0.7,0.2-1.4,0.4-2.1,0.6
			c-1.4,0.4-2.8,0.9-4.2,1.4c-1.4,0.5-2.8,1-4.2,1.6l-8.5-11.1l2.7-3.7l6.4-8.6l20.9-28l1.2-1.7l30.6,17.5L-451.2,1043.1z"/>
		<path id="XMLID_9_" class="st5" d="M-388.8,993.6c-0.7,0.4-1.5,0.8-2.2,1.2c-1.6,0.9-3.2,1.9-4.8,2.9c-0.5,0.3-1.1,0.7-1.6,1.1
			c-0.5,0.3-1,0.6-1.5,1c-0.8,0.5-1.5,1.1-2.3,1.6c-0.4,0.3-0.8,0.6-1.3,0.9c-0.6,0.5-1.3,1-2,1.5c-0.7,0.6-1.5,1.2-2.3,1.8
			c-8.2,6.6-15.8,14.4-22.7,23.2l-9-5.2l-14.5-54.1l-1.4-5.3c14.1,4.9,28.1,10.7,41.8,17.2c0.8,0.4,1.6,0.8,2.4,1.1
			c0.4,0.2,0.8,0.4,1.2,0.6c0.1,0.1,0.2,0.1,0.3,0.2c1.2,0.6,2.3,1.1,3.5,1.7c1.1,0.6,2.2,1.1,3.4,1.7c0.6,0.3,1.2,0.6,1.8,0.9
			c0.3,0.1,0.6,0.3,0.9,0.5c0.3,0.2,0.6,0.3,0.9,0.5c0.8,0.4,1.6,0.8,2.4,1.3c1.2,0.6,2.4,1.3,3.6,1.9
			C-391.2,992.3-390,992.9-388.8,993.6z"/>
		<path id="XMLID_8_" class="st6" d="M-429.3,1028.8c-1.9,2.5-3.8,5-5.6,7.6l-3.4-12.8L-429.3,1028.8z"/>
	</g>
	<g id="XMLID_26_">
		<g id="XMLID_36_">
			<path id="XMLID_7_" class="st7" d="M-527.8,978.6c-1,0-2-0.2-2.9-0.8l-3.4-1.9c-2.8-1.6-3.8-5.2-2.2-8c1.6-2.8,5.2-3.8,8-2.2
				l3.4,1.9c2.8,1.6,3.8,5.2,2.2,8C-523.7,977.5-525.7,978.6-527.8,978.6z"/>
		</g>
		<g id="XMLID_29_">
			<path id="XMLID_30_" class="st7" d="M-404.7,1048.8c-1,0-2-0.2-2.9-0.8l-7-4c-2.8-1.6-3.8-5.2-2.2-8s5.2-3.8,8-2.2l7,4
				c2.8,1.6,3.8,5.2,2.2,8C-400.7,1047.7-402.7,1048.8-404.7,1048.8z M-429.3,1034.7c-1,0-2-0.2-2.9-0.8l-7-4
				c-2.8-1.6-3.8-5.2-2.2-8s5.2-3.8,8-2.2l7,4c2.8,1.6,3.8,5.2,2.2,8C-425.3,1033.7-427.3,1034.7-429.3,1034.7z M-453.9,1020.7
				c-1,0-2-0.2-2.9-0.8l-7-4c-2.8-1.6-3.8-5.2-2.2-8c1.6-2.8,5.2-3.8,8-2.2l7,4c2.8,1.6,3.8,5.2,2.2,8
				C-449.9,1019.6-451.9,1020.7-453.9,1020.7z M-478.5,1006.7c-1,0-2-0.2-2.9-0.8l-7-4c-2.8-1.6-3.8-5.2-2.2-8
				c1.6-2.8,5.2-3.8,8-2.2l7,4c2.8,1.6,3.8,5.2,2.2,8C-474.5,1005.6-476.5,1006.7-478.5,1006.7z M-503.1,992.6c-1,0-2-0.2-2.9-0.8
				l-7-4c-2.8-1.6-3.8-5.2-2.2-8c1.6-2.8,5.2-3.8,8-2.2l7,4c2.8,1.6,3.8,5.2,2.2,8C-499.1,991.6-501.1,992.6-503.1,992.6z"/>
		</g>
		<g id="XMLID_27_">
			<path id="XMLID_1_" class="st7" d="M-383.7,1060.7c-1,0-2-0.2-2.9-0.8l-3.4-1.9c-2.8-1.6-3.8-5.2-2.2-8c1.6-2.8,5.2-3.8,8-2.2
				l3.4,1.9c2.8,1.6,3.8,5.2,2.2,8C-379.7,1059.7-381.7,1060.7-383.7,1060.7z"/>
		</g>
	</g>
</g>
<g>
	<path class="st6" d="M-314.8,1026.4c-1.2-1.2-1.8-2.7-1.8-4.4v-81.2c0-1.8,0.6-3.3,1.8-4.5c1.2-1.2,2.7-1.7,4.4-1.7h54.2
		c1.8,0,3.3,0.5,4.4,1.6c1.1,1.1,1.7,2.5,1.7,4.3c0,1.7-0.6,3-1.7,4.1c-1.1,1-2.6,1.6-4.4,1.6h-48v29.2h34.4c1.8,0,3.2,0.5,4.4,1.6
		c1.2,1.1,1.7,2.5,1.7,4.1c0,1.7-0.6,3.1-1.7,4.1c-1.2,1.1-2.6,1.6-4.4,1.6h-34.4v35.3c0,1.8-0.6,3.2-1.8,4.4
		c-1.2,1.2-2.7,1.8-4.4,1.8C-312.1,1028.2-313.6,1027.6-314.8,1026.4z"/>
	<path class="st6" d="M-180.4,1022.6c0,1.6-0.5,2.9-1.6,4s-2.5,1.6-4.4,1.6c-2.3,0-4.1-1-5.4-3l-20.6-33.1h-2.2H-230v29.9
		c0,1.8-0.6,3.2-1.7,4.4c-1.2,1.2-2.7,1.8-4.5,1.8c-1.8,0-3.2-0.6-4.4-1.8c-1.2-1.2-1.8-2.7-1.8-4.4v-81.2c0-1.8,0.6-3.3,1.8-4.5
		c1.2-1.2,2.7-1.7,4.4-1.7h21.6c5.9,0,11.2,1.2,15.9,3.7c4.7,2.5,8.3,6,10.9,10.4c2.6,4.5,3.9,9.6,3.9,15.4c0,5.7-1.4,10.7-4.3,15.1
		c-2.9,4.4-6.8,7.7-11.8,10l18.4,29.5C-180.8,1019.9-180.4,1021.2-180.4,1022.6z M-214.6,980.6c5.4,0,9.9-1.5,13.4-4.6
		c3.5-3.1,5.3-7.1,5.3-11.9c0-5.3-1.8-9.6-5.3-13c-3.5-3.4-8-5-13.4-5H-230v34.6H-214.6z"/>
	<path class="st6" d="M-117.8,1017.9c1,1.1,1.5,2.6,1.5,4.3c0,1.8-0.7,3.2-2,4.3c-1.3,1.1-3,1.7-5.1,1.7h-2.2c-3.9,0-7.5-1-10.7-3.1
		c-3.2-2-5.8-4.8-7.6-8.3c-1.8-3.5-2.8-7.5-2.8-11.9v-29.6h-5.5c-1.7,0-3-0.5-4.1-1.4c-1-1-1.6-2.2-1.6-3.6c0-1.6,0.5-2.9,1.6-3.8
		c1-1,2.4-1.4,4.1-1.4h5.5v-17.3c0-1.8,0.6-3.2,1.7-4.3c1.1-1.1,2.6-1.7,4.3-1.7c1.8,0,3.2,0.6,4.3,1.7c1.1,1.1,1.7,2.6,1.7,4.3V965
		h10.2c1.7,0,3,0.5,4.1,1.4c1,1,1.6,2.2,1.6,3.8c0,1.4-0.5,2.6-1.6,3.6c-1,1-2.4,1.4-4.1,1.4h-10.2v29.6c0,3.2,0.9,5.9,2.6,8
		c1.8,2.2,3.9,3.2,6.5,3.2h4.1C-120.1,1016.2-118.8,1016.8-117.8,1017.9z"/>
	<path class="st6" d="M-97.2,1024.4c-5-2.8-9-6.8-11.8-11.8c-2.8-5-4.2-10.8-4.2-17.2c0-6.5,1.4-12.2,4.2-17.3
		c2.8-5,6.7-9,11.8-11.8c5-2.8,10.8-4.3,17.2-4.3c6.3,0,12,1.4,17,4.3c5,2.8,8.9,6.8,11.8,11.8c2.8,5,4.3,10.8,4.3,17.3
		c0,6.4-1.4,12.1-4.2,17.2c-2.8,5-6.7,9-11.7,11.8c-5,2.8-10.7,4.3-17.1,4.3C-86.4,1028.7-92.1,1027.3-97.2,1024.4z M-69,1015
		c3.2-1.9,5.8-4.6,7.6-8c1.8-3.4,2.7-7.3,2.7-11.6c0-4.3-0.9-8.2-2.7-11.6c-1.8-3.4-4.3-6.1-7.6-8s-6.9-2.9-11-2.9s-7.7,1-11,2.9
		s-5.8,4.6-7.6,8c-1.8,3.4-2.8,7.3-2.8,11.6c0,4.3,0.9,8.2,2.8,11.6c1.8,3.4,4.4,6.1,7.6,8s6.9,2.9,11,2.9S-72.3,1016.9-69,1015z"/>
	<path class="st6" d="M-24.6,1024.4c-5-2.8-9-6.8-11.8-11.8c-2.8-5-4.2-10.8-4.2-17.2c0-6.5,1.4-12.2,4.2-17.3
		c2.8-5,6.7-9,11.8-11.8c5-2.8,10.8-4.3,17.2-4.3c6.3,0,12,1.4,17,4.3c5,2.8,8.9,6.8,11.8,11.8c2.8,5,4.3,10.8,4.3,17.3
		c0,6.4-1.4,12.1-4.2,17.2c-2.8,5-6.7,9-11.7,11.8c-5,2.8-10.7,4.3-17.1,4.3C-13.8,1028.7-19.5,1027.3-24.6,1024.4z M3.6,1015
		c3.2-1.9,5.8-4.6,7.6-8c1.8-3.4,2.7-7.3,2.7-11.6c0-4.3-0.9-8.2-2.7-11.6c-1.8-3.4-4.3-6.1-7.6-8s-6.9-2.9-11-2.9
		c-4.1,0-7.7,1-11,2.9s-5.8,4.6-7.6,8c-1.8,3.4-2.8,7.3-2.8,11.6c0,4.3,0.9,8.2,2.8,11.6c1.8,3.4,4.4,6.1,7.6,8s6.9,2.9,11,2.9
		C-3.3,1017.9,0.3,1016.9,3.6,1015z"/>
	<path class="st6" d="M41.7,1025.4c-2.8-1.9-4.9-4.5-6.4-7.9c-1.5-3.4-2.3-7.2-2.3-11.5v-65.5c0-1.8,0.6-3.2,1.7-4.3
		c1.1-1.1,2.6-1.7,4.3-1.7c1.8,0,3.2,0.6,4.3,1.7c1.1,1.1,1.7,2.6,1.7,4.3v65.5c0,3,0.6,5.4,1.7,7.3c1.1,1.9,2.6,2.9,4.3,2.9h3
		c1.6,0,2.9,0.6,3.9,1.7c1,1.1,1.5,2.6,1.5,4.3c0,1.8-0.8,3.2-2.3,4.3c-1.5,1.1-3.5,1.7-5.9,1.7H51
		C47.6,1028.2,44.5,1027.3,41.7,1025.4z"/>
	<path class="st6" d="M71.6,1026.2c-4.8-1.7-8.6-3.9-11.3-6.6c-1-1-1.6-2.3-1.6-3.7c0-1.9,0.8-3.5,2.4-4.7c1.5-1.1,2.9-1.7,4.2-1.7
		c1.6,0,3.1,0.7,4.6,2.2c1.5,1.7,3.8,3.1,6.8,4.4c3,1.2,6.3,1.9,9.7,1.9c4.6,0,8.1-0.8,10.6-2.3c2.5-1.5,3.8-3.6,3.8-6.1
		c0-2.5-1.2-4.5-3.7-6.2c-2.5-1.6-6.7-3-12.6-4.1c-15.4-3-23-9.3-23-19c0-3.9,1.2-7.2,3.5-10c2.3-2.7,5.4-4.8,9.1-6.1
		c3.8-1.4,7.8-2,12-2c5.2,0,9.9,0.8,14,2.5c4.1,1.7,7.4,4,9.8,7c1,1.3,1.6,2.6,1.6,3.8c0,1.4-0.7,2.6-2,3.7c-0.9,0.6-2,1-3.4,1
		c-2.1,0-4-0.8-5.6-2.3c-2-1.8-4.1-3.1-6.4-3.9c-2.2-0.8-5-1.1-8.2-1.1c-3.7,0-6.7,0.6-9.1,1.9c-2.4,1.2-3.5,3-3.5,5.2
		c0,1.6,0.4,2.9,1.2,4c0.8,1.1,2.3,2.1,4.6,3c2.2,0.9,5.5,1.8,9.7,2.7c8.7,1.8,14.9,4.2,18.5,7.3c3.6,3.1,5.5,7.2,5.5,12.1
		c0,3.7-1,7-3,10c-2,3-4.9,5.4-8.8,7.1c-3.9,1.7-8.5,2.6-14,2.6C81.5,1028.7,76.4,1027.9,71.6,1026.2z"/>
</g>
<g>
	<path class="st6" d="M-292.8,1033.4c0.4,0.4,0.6,1,0.6,1.7v20.5c0,2.3-0.5,4.5-1.6,6.4c-1.1,1.9-2.6,3.4-4.5,4.5
		c-1.9,1.1-4,1.6-6.3,1.6c-2.3,0-4.4-0.5-6.3-1.6c-1.9-1.1-3.4-2.6-4.5-4.5c-1.1-1.9-1.6-4-1.6-6.4s0.5-4.5,1.5-6.4
		c1-1.9,2.4-3.4,4.1-4.5s3.7-1.6,5.9-1.6c1.7,0,3.4,0.4,4.9,1.1c1.5,0.7,2.8,1.7,3.8,3v-12.1c0-0.7,0.2-1.2,0.7-1.7
		c0.4-0.4,1-0.6,1.6-0.6C-293.8,1032.8-293.3,1033-292.8,1033.4z M-300.5,1062.9c1.2-0.7,2.2-1.7,2.9-3c0.7-1.3,1-2.7,1-4.3
		c0-1.6-0.3-3-1-4.3c-0.7-1.3-1.6-2.3-2.9-3c-1.2-0.7-2.6-1.1-4.1-1.1c-1.5,0-2.9,0.4-4.1,1.1c-1.2,0.7-2.2,1.7-2.9,3
		c-0.7,1.3-1.1,2.7-1.1,4.3c0,1.6,0.4,3,1.1,4.3c0.7,1.3,1.7,2.3,2.9,3c1.2,0.7,2.6,1.1,4.1,1.1
		C-303.1,1064-301.7,1063.7-300.5,1062.9z"/>
	<path class="st6" d="M-241.4,1038.4c-0.6-0.6-0.9-1.3-0.9-2.1c0-0.8,0.3-1.5,0.9-2.1s1.3-0.9,2.1-0.9s1.5,0.3,2.1,0.9
		s0.9,1.3,0.9,2.1c0,0.8-0.3,1.5-0.9,2.1s-1.3,0.9-2.1,0.9S-240.8,1039-241.4,1038.4z M-240.9,1067.3c-0.4-0.4-0.7-1-0.7-1.6v-20
		c0-0.7,0.2-1.2,0.7-1.7c0.4-0.4,1-0.6,1.6-0.6c0.7,0,1.2,0.2,1.7,0.6c0.4,0.4,0.6,1,0.6,1.7v20c0,0.7-0.2,1.2-0.6,1.6
		c-0.4,0.4-1,0.7-1.7,0.7C-240,1067.9-240.5,1067.7-240.9,1067.3z"/>
	<path class="st6" d="M-183.2,1067.1c-1.8-0.6-3.2-1.5-4.2-2.5c-0.4-0.4-0.6-0.9-0.6-1.4c0-0.7,0.3-1.3,0.9-1.8
		c0.6-0.4,1.1-0.6,1.6-0.6c0.6,0,1.2,0.3,1.7,0.8c0.6,0.6,1.4,1.2,2.6,1.6c1.1,0.5,2.4,0.7,3.6,0.7c1.7,0,3-0.3,4-0.9
		c0.9-0.6,1.4-1.3,1.4-2.3c0-0.9-0.5-1.7-1.4-2.3c-0.9-0.6-2.5-1.1-4.7-1.6c-5.8-1.1-8.6-3.5-8.6-7.1c0-1.5,0.4-2.7,1.3-3.7
		c0.9-1,2-1.8,3.4-2.3c1.4-0.5,2.9-0.8,4.5-0.8c1.9,0,3.7,0.3,5.2,0.9c1.5,0.6,2.8,1.5,3.7,2.6c0.4,0.5,0.6,1,0.6,1.4
		c0,0.5-0.3,1-0.8,1.4c-0.3,0.2-0.8,0.4-1.3,0.4c-0.8,0-1.5-0.3-2.1-0.9c-0.8-0.7-1.5-1.2-2.4-1.5c-0.8-0.3-1.9-0.4-3.1-0.4
		c-1.4,0-2.5,0.2-3.4,0.7c-0.9,0.5-1.3,1.1-1.3,2c0,0.6,0.1,1.1,0.5,1.5c0.3,0.4,0.9,0.8,1.7,1.1c0.8,0.3,2.1,0.7,3.6,1
		c3.3,0.7,5.6,1.6,7,2.7c1.4,1.2,2,2.7,2,4.5c0,1.4-0.4,2.6-1.1,3.8c-0.8,1.1-1.9,2-3.3,2.7c-1.5,0.6-3.2,1-5.2,1
		C-179.5,1068.1-181.4,1067.8-183.2,1067.1z"/>
	<path class="st6" d="M-115.1,1066.5c-1.9-1.1-3.4-2.6-4.4-4.5c-1.1-1.9-1.6-4-1.6-6.4c0-2.4,0.5-4.6,1.6-6.5c1-1.9,2.5-3.4,4.3-4.5
		c1.9-1.1,4-1.6,6.3-1.6c3.5,0,6.5,1.3,8.8,4c0.3,0.3,0.5,0.7,0.5,1.2c0,0.7-0.3,1.2-1,1.7c-0.3,0.2-0.6,0.3-1,0.3
		c-0.7,0-1.3-0.3-1.8-0.8c-0.8-0.8-1.6-1.4-2.5-1.8c-0.9-0.4-1.9-0.6-3-0.6c-2.3,0-4.2,0.8-5.6,2.3c-1.4,1.5-2.2,3.6-2.2,6.1
		c0,1.6,0.3,3.1,1,4.3c0.7,1.3,1.6,2.3,2.8,3c1.2,0.7,2.6,1.1,4.2,1.1c2,0,3.7-0.5,5-1.6c0.6-0.4,1.1-0.6,1.7-0.6
		c0.4,0,0.8,0.1,1.2,0.4c0.6,0.5,0.9,1,0.9,1.6c0,0.5-0.2,0.9-0.5,1.2c-2.2,2-4.9,3-8.1,3C-111.1,1068.1-113.2,1067.6-115.1,1066.5z
		"/>
	<path class="st6" d="M-46,1066.5c-1.9-1.1-3.4-2.5-4.4-4.4c-1.1-1.9-1.6-4-1.6-6.4c0-2.4,0.5-4.6,1.6-6.5c1-1.9,2.5-3.4,4.4-4.4
		c1.9-1.1,4-1.6,6.4-1.6c2.4,0,4.5,0.5,6.4,1.6c1.9,1.1,3.3,2.5,4.4,4.4c1.1,1.9,1.6,4,1.6,6.5c0,2.4-0.5,4.5-1.6,6.4
		c-1,1.9-2.5,3.4-4.4,4.4c-1.9,1.1-4,1.6-6.4,1.6C-42,1068.1-44.1,1067.6-46,1066.5z M-35.5,1063c1.2-0.7,2.2-1.7,2.8-3
		c0.7-1.3,1-2.7,1-4.3s-0.3-3.1-1-4.4c-0.7-1.3-1.6-2.3-2.8-3c-1.2-0.7-2.6-1.1-4.1-1.1s-2.9,0.4-4.1,1.1s-2.2,1.7-2.9,3
		c-0.7,1.3-1,2.7-1,4.4s0.3,3.1,1,4.3c0.7,1.3,1.6,2.3,2.9,3s2.6,1.1,4.1,1.1S-36.7,1063.7-35.5,1063z"/>
	<path class="st6" d="M37.5,1043.7c0.9,0.5,1.4,1.1,1.4,1.8c0,0.2,0,0.4,0,0.5c-0.3,1-0.9,1.4-1.8,1.4c-0.2,0-0.4,0-0.7-0.1
		c-1.2-0.2-2.2-0.3-2.9-0.3c-2.2,0-3.9,0.5-5.2,1.5c-1.3,1-2,2.3-2,4v13.1c0,0.7-0.2,1.3-0.6,1.7c-0.4,0.4-0.9,0.6-1.7,0.6
		c-0.7,0-1.3-0.2-1.7-0.6s-0.6-0.9-0.6-1.7v-20.1c0-0.7,0.2-1.3,0.6-1.7c0.4-0.4,0.9-0.6,1.7-0.6c1.5,0,2.3,0.8,2.3,2.3v0.9
		c0.9-1,2-1.9,3.3-2.5c1.3-0.6,2.7-0.9,4.2-0.9C35.4,1043,36.6,1043.3,37.5,1043.7z"/>
	<path class="st6" d="M106.8,1033.4c0.4,0.4,0.6,1,0.6,1.7v20.5c0,2.3-0.5,4.5-1.6,6.4c-1.1,1.9-2.6,3.4-4.5,4.5
		c-1.9,1.1-4,1.6-6.3,1.6c-2.3,0-4.4-0.5-6.3-1.6c-1.9-1.1-3.4-2.6-4.5-4.5c-1.1-1.9-1.6-4-1.6-6.4s0.5-4.5,1.5-6.4
		c1-1.9,2.4-3.4,4.1-4.5s3.7-1.6,5.9-1.6c1.7,0,3.4,0.4,4.9,1.1s2.8,1.7,3.8,3v-12.1c0-0.7,0.2-1.2,0.7-1.7c0.4-0.4,1-0.6,1.6-0.6
		C105.8,1032.8,106.3,1033,106.8,1033.4z M99.1,1062.9c1.2-0.7,2.2-1.7,2.9-3s1-2.7,1-4.3c0-1.6-0.3-3-1-4.3c-0.7-1.3-1.6-2.3-2.9-3
		c-1.2-0.7-2.6-1.1-4.1-1.1s-2.9,0.4-4.1,1.1c-1.2,0.7-2.2,1.7-2.9,3c-0.7,1.3-1.1,2.7-1.1,4.3c0,1.6,0.4,3,1.1,4.3
		c0.7,1.3,1.7,2.3,2.9,3c1.2,0.7,2.6,1.1,4.1,1.1S97.9,1063.7,99.1,1062.9z"/>
</g>
</svg>
