<?xml version="1.0" encoding="utf-8"?>
<!-- Generator: Adobe Illustrator 19.0.0, SVG Export Plug-In . SVG Version: 6.00 Build 0)  -->
<svg version="1.1" id="Layer_1" xmlns="http://www.w3.org/2000/svg" xmlns:xlink="http://www.w3.org/1999/xlink" x="0px" y="0px"
	 viewBox="0 0 890 141.2" style="enable-background:new 0 0 890 141.2;" xml:space="preserve">
<style type="text/css">
	.st0{fill:#2A94C7;}
	.st1{fill:#B5AE93;}
	.st2{fill:#C8C2AC;}
	.st3{fill:#4CB2CF;}
	.st4{fill:#231F20;}
</style>
<g id="XMLID_46_">
	<g id="XMLID_60_">
		<path id="XMLID_64_" class="st0" d="M243.7,138.9c-1.8-1.8-2.7-4-2.7-6.6v-120c0-2.7,0.9-4.9,2.7-6.6c1.8-1.7,4-2.6,6.6-2.6h80.1
			c2.7,0,4.9,0.8,6.6,2.4c1.7,1.6,2.5,3.7,2.5,6.3c0,2.5-0.8,4.5-2.5,6c-1.7,1.5-3.8,2.3-6.6,2.3h-70.9v43.1h50.9
			c2.6,0,4.8,0.8,6.5,2.4c1.7,1.6,2.6,3.6,2.6,6.1s-0.9,4.5-2.6,6.1c-1.7,1.6-3.9,2.4-6.5,2.4h-50.9v52.1c0,2.6-0.9,4.8-2.7,6.6
			c-1.8,1.8-4,2.7-6.6,2.7C247.6,141.6,245.5,140.7,243.7,138.9z"/>
		<path id="XMLID_61_" class="st0" d="M444.5,133.3c0,2.4-0.8,4.3-2.4,5.9c-1.6,1.6-3.8,2.4-6.5,2.4c-3.4,0-6.1-1.5-8-4.4
			l-30.5-48.9H394h-22.7v44.1c0,2.6-0.9,4.8-2.6,6.6c-1.7,1.8-3.9,2.7-6.6,2.7c-2.6,0-4.8-0.9-6.6-2.7c-1.8-1.8-2.7-4-2.7-6.6v-120
			c0-2.7,0.9-4.9,2.7-6.6c1.8-1.7,4-2.6,6.6-2.6H394c8.7,0,16.6,1.8,23.5,5.5c6.9,3.7,12.3,8.8,16.1,15.4c3.8,6.6,5.8,14.2,5.8,22.7
			c0,8.4-2.1,15.8-6.4,22.3c-4.3,6.5-10,11.4-17.4,14.7l27.1,43.6C443.9,129.3,444.5,131.3,444.5,133.3z M394,71.2
			c8,0,14.6-2.3,19.8-6.8c5.2-4.5,7.8-10.4,7.8-17.6c0-7.8-2.6-14.2-7.8-19.1c-5.2-5-11.8-7.4-19.8-7.4h-22.7v51H394z"/>
	</g>
	<g id="XMLID_47_">
		<path id="XMLID_58_" class="st0" d="M539.8,125.7c1.5,1.7,2.3,3.9,2.3,6.5c0,2.7-1,4.8-3,6.5c-2,1.7-4.5,2.5-7.7,2.5h-3.3
			c-5.9,0-11.3-1.5-16.2-4.6c-4.9-3.1-8.7-7.3-11.5-12.6c-2.8-5.3-4.2-11.3-4.2-17.9V61.5H488c-2.5,0-4.6-0.7-6.1-2.2
			c-1.6-1.4-2.4-3.3-2.4-5.4c0-2.4,0.8-4.3,2.4-5.8c1.6-1.4,3.6-2.2,6.1-2.2h8.3v-26c0-2.7,0.8-4.8,2.5-6.5c1.7-1.7,3.9-2.5,6.5-2.5
			c2.6,0,4.8,0.8,6.5,2.5c1.7,1.7,2.5,3.9,2.5,6.5v26h15.4c2.5,0,4.6,0.7,6.1,2.2c1.6,1.4,2.4,3.4,2.4,5.8c0,2.2-0.8,4-2.4,5.4
			c-1.6,1.4-3.6,2.2-6.1,2.2h-15.4v44.7c0,4.8,1.3,8.9,4,12.1c2.6,3.3,5.9,4.9,9.8,4.9h6.1C536.5,123.2,538.3,124,539.8,125.7z"/>
		<path id="XMLID_55_" class="st0" d="M569.2,135.5c-7.6-4.3-13.5-10.2-17.7-17.8c-4.2-7.6-6.3-16.2-6.3-25.9c0-9.8,2.1-18.4,6.3-26
			c4.2-7.6,10.1-13.5,17.7-17.8c7.6-4.3,16.2-6.4,25.9-6.4c9.5,0,18.1,2.1,25.6,6.4c7.5,4.3,13.4,10.2,17.7,17.8
			c4.3,7.6,6.4,16.3,6.4,26c0,9.6-2.1,18.3-6.3,25.9c-4.2,7.6-10.1,13.5-17.6,17.8c-7.5,4.3-16.1,6.4-25.8,6.4
			C585.4,142,576.8,139.8,569.2,135.5z M611.6,121.3c4.9-2.9,8.7-6.9,11.4-12c2.7-5.1,4.1-10.9,4.1-17.4c0-6.5-1.4-12.4-4.1-17.5
			c-2.7-5.2-6.5-9.2-11.4-12.1c-4.9-2.9-10.4-4.3-16.5-4.3c-6.1,0-11.7,1.4-16.5,4.3c-4.9,2.9-8.7,6.9-11.5,12.1
			c-2.8,5.2-4.2,11-4.2,17.5c0,6.5,1.4,12.3,4.2,17.4c2.8,5.1,6.6,9.1,11.5,12c4.9,2.9,10.4,4.3,16.5,4.3
			C601.2,125.7,606.7,124.2,611.6,121.3z"/>
		<path id="XMLID_52_" class="st0" d="M676.8,135.5c-7.6-4.3-13.5-10.2-17.7-17.8c-4.2-7.6-6.3-16.2-6.3-25.9c0-9.8,2.1-18.4,6.3-26
			c4.2-7.6,10.1-13.5,17.7-17.8c7.6-4.3,16.2-6.4,25.9-6.4c9.5,0,18.1,2.1,25.6,6.4c7.5,4.3,13.4,10.2,17.7,17.8
			c4.3,7.6,6.4,16.3,6.4,26c0,9.6-2.1,18.3-6.3,25.9c-4.2,7.6-10.1,13.5-17.6,17.8c-7.5,4.3-16.1,6.4-25.8,6.4
			C693,142,684.4,139.8,676.8,135.5z M719.2,121.3c4.9-2.9,8.7-6.9,11.4-12c2.7-5.1,4.1-10.9,4.1-17.4c0-6.5-1.4-12.4-4.1-17.5
			c-2.7-5.2-6.5-9.2-11.4-12.1c-4.9-2.9-10.4-4.3-16.5-4.3c-6.1,0-11.7,1.4-16.5,4.3c-4.9,2.9-8.7,6.9-11.5,12.1
			c-2.8,5.2-4.2,11-4.2,17.5c0,6.5,1.4,12.3,4.2,17.4c2.8,5.1,6.6,9.1,11.5,12c4.9,2.9,10.4,4.3,16.5,4.3
			C708.8,125.7,714.3,124.2,719.2,121.3z"/>
		<path id="XMLID_50_" class="st0" d="M774.9,137c-4.2-2.8-7.4-6.8-9.7-11.9c-2.3-5.1-3.4-10.9-3.4-17.3V9c0-2.7,0.8-4.8,2.5-6.5
			c1.7-1.7,3.9-2.5,6.5-2.5c2.6,0,4.8,0.8,6.5,2.5c1.7,1.7,2.5,3.9,2.5,6.5v98.7c0,4.5,0.8,8.1,2.5,11c1.7,2.9,3.9,4.3,6.5,4.3h4.5
			c2.4,0,4.4,0.8,5.9,2.5c1.5,1.7,2.3,3.9,2.3,6.5c0,2.7-1.1,4.8-3.4,6.5c-2.3,1.7-5.2,2.5-8.9,2.5h-0.4
			C783.7,141.2,779.1,139.8,774.9,137z"/>
		<path id="XMLID_48_" class="st0" d="M828,138.2c-7.2-2.5-12.9-5.8-17-9.9c-1.6-1.6-2.3-3.4-2.3-5.6c0-2.9,1.2-5.2,3.6-7.1
			c2.3-1.7,4.4-2.5,6.3-2.5c2.4,0,4.7,1.1,6.9,3.3c2.3,2.5,5.7,4.7,10.3,6.6c4.6,1.9,9.5,2.8,14.6,2.8c6.9,0,12.2-1.1,16-3.4
			c3.8-2.3,5.7-5.4,5.7-9.2c0-3.7-1.9-6.8-5.6-9.3c-3.7-2.5-10.1-4.5-19-6.2c-23.1-4.5-34.7-14-34.7-28.6c0-5.9,1.7-10.9,5.2-15
			c3.5-4.1,8.1-7.2,13.7-9.2c5.7-2,11.7-3.1,18.1-3.1c7.8,0,14.9,1.3,21.1,3.8c6.2,2.5,11.1,6,14.7,10.5c1.6,1.9,2.4,3.9,2.4,5.8
			c0,2.1-1,3.9-3.1,5.6c-1.3,1-3,1.4-5.1,1.4c-3.1,0-6-1.1-8.5-3.4c-3-2.8-6.2-4.7-9.6-5.9c-3.4-1.1-7.5-1.7-12.3-1.7
			c-5.5,0-10.1,0.9-13.7,2.8c-3.6,1.9-5.3,4.5-5.3,7.9c0,2.4,0.6,4.4,1.8,6.1c1.2,1.6,3.5,3.1,6.9,4.5c3.4,1.4,8.3,2.7,14.6,4.1
			c13.1,2.7,22.5,6.3,27.9,11c5.5,4.7,8.2,10.8,8.2,18.3c0,5.5-1.5,10.6-4.5,15.1c-3,4.5-7.4,8.1-13.3,10.7
			c-5.8,2.6-12.9,3.9-21.1,3.9C842.9,142,835.2,140.7,828,138.2z"/>
	</g>
</g>
<g id="XMLID_25_">
	<path id="XMLID_44_" class="st0" d="M124.7,98c-1.9,2.5-3.8,5-5.6,7.6l-3.4-12.8L94.3,80.7l8.5,31.5v0c-3.1-0.8-6.1-1.5-9.2-2
		c-1-0.2-2.1-0.3-3.1-0.5c-0.5-0.1-1-0.1-1.6-0.2c-1.6-0.2-3.1-0.3-4.7-0.4c-0.5,0-1-0.1-1.6-0.1c-1.6-0.1-3.1-0.1-4.7-0.1
		c-0.9,0-1.8,0-2.7,0c-2.9,0.1-5.9,0.3-8.8,0.6c-1.5,0.2-2.9,0.4-4.4,0.6c-1.3,0.2-2.7,0.5-4,0.8c-1.3,0.3-2.7,0.6-4,0.9
		c-0.9,0.2-1.8,0.5-2.7,0.7c-0.7,0.2-1.4,0.4-2.1,0.6c-1.4,0.4-2.8,0.9-4.2,1.4c-1.4,0.5-2.8,1-4.2,1.6l-8.5-11.1l2.7-3.7l6.4-8.6
		l20.9-28l1.2-1.7l-16.5-9.4L22.8,86.6L0,93.9c6.1,8,12.1,15.9,18.2,23.9c0,0,0.2,0.3,0.5,0.6c0.1,0.1,0.2,0.2,0.2,0.3
		c0,0.1,0.1,0.1,0.2,0.2c0.1,0.1,0.2,0.3,0.3,0.4c0.2,0.2,0.4,0.5,0.6,0.8c1.1,1.5,2.4,3.1,2.4,3.2c1.9,2.5,12.2,15.9,14,18.4
		c10.4-5.5,23.6-10,39.3-10.8c0.8,0,1.5,0,2.3,0c18.7,0,33.4,6.4,41.5,10.9c3.8-8.2,10.8-21.2,22-34L124.7,98z"/>
	<path id="XMLID_12_" class="st1" d="M216.3,70.7c-10.6,0.2-34.9,2.4-59.8,22.4c-5.7,4.6-10.7,9.5-15,14.5L124.7,98
		c6.9-8.8,14.5-16.6,22.7-23.2c0.7-0.6,1.5-1.2,2.3-1.8c0.7-0.5,1.3-1,2-1.5c0.4-0.3,0.8-0.6,1.3-0.9c0.8-0.6,1.5-1.1,2.3-1.6
		c0.5-0.3,1-0.7,1.5-1c0.5-0.4,1.1-0.7,1.6-1.1c1.6-1,3.2-2,4.8-2.9c0.7-0.4,1.5-0.8,2.2-1.2c-1.2-0.7-2.4-1.3-3.6-2
		c-1.2-0.6-2.4-1.3-3.6-1.9c-0.8-0.4-1.6-0.9-2.4-1.3c-0.3-0.2-0.6-0.3-0.9-0.5c-0.3-0.2-0.6-0.3-0.9-0.5c-0.6-0.3-1.2-0.6-1.8-0.9
		c-1.1-0.6-2.2-1.1-3.4-1.7c-1.2-0.6-2.3-1.1-3.5-1.7c-0.1-0.1-0.2-0.1-0.3-0.2c-0.4-0.2-0.8-0.4-1.2-0.6c-0.8-0.4-1.6-0.8-2.4-1.2
		c-13.7-6.5-27.7-12.3-41.8-17.2v0l1.4,5.3l14.6,54.2L94.3,80.7L92,72.1l-4.3-16l-4.8-17.9l-0.1-0.5l-0.6,0.8L63.7,63.2l-16.5-9.4
		L83.1,5.6v0c19.3,5.6,41.1,13.5,64.3,24.6C174,42.9,197,57.1,216.3,70.7z"/>
	<g id="XMLID_38_">
		<polygon id="XMLID_11_" class="st2" points="94.3,80.7 63.7,63.2 82.1,38.5 82.7,37.7 82.9,38.2 87.7,56.1 92,72.1 		"/>
		<path id="XMLID_10_" class="st3" d="M102.8,112.3c-3.1-0.8-6.1-1.5-9.2-2c-1-0.2-2.1-0.3-3.1-0.5c-0.5-0.1-1-0.1-1.6-0.2
			c-1.6-0.2-3.1-0.3-4.7-0.4c-0.5,0-1-0.1-1.6-0.1c-1.6-0.1-3.1-0.1-4.7-0.1c-0.9,0-1.8,0-2.7,0c-2.9,0.1-5.9,0.3-8.8,0.6
			c-1.5,0.2-2.9,0.4-4.4,0.6c-1.3,0.2-2.7,0.5-4,0.8c-1.3,0.3-2.7,0.6-4,0.9c-0.9,0.2-1.8,0.5-2.7,0.7c-0.7,0.2-1.4,0.4-2.1,0.6
			c-1.4,0.4-2.8,0.9-4.2,1.4c-1.4,0.5-2.8,1-4.2,1.6l-8.5-11.1l2.7-3.7l6.4-8.6l20.9-28l1.2-1.7l30.6,17.5L102.8,112.3z"/>
		<path id="XMLID_9_" class="st2" d="M165.2,62.8c-0.7,0.4-1.5,0.8-2.2,1.2c-1.6,0.9-3.2,1.9-4.8,2.9c-0.5,0.3-1.1,0.7-1.6,1.1
			c-0.5,0.3-1,0.6-1.5,1c-0.8,0.5-1.5,1.1-2.3,1.6c-0.4,0.3-0.8,0.6-1.3,0.9c-0.6,0.5-1.3,1-2,1.5c-0.7,0.6-1.5,1.2-2.3,1.8
			c-8.2,6.6-15.8,14.4-22.7,23.2l-9-5.2L101,38.7l-1.4-5.3c14.1,4.9,28.1,10.7,41.8,17.2c0.8,0.4,1.6,0.8,2.4,1.1
			c0.4,0.2,0.8,0.4,1.2,0.6c0.1,0.1,0.2,0.1,0.3,0.2c1.2,0.6,2.3,1.1,3.5,1.7c1.1,0.6,2.2,1.1,3.4,1.7c0.6,0.3,1.2,0.6,1.8,0.9
			c0.3,0.1,0.6,0.3,0.9,0.5c0.3,0.2,0.6,0.3,0.9,0.5c0.8,0.4,1.6,0.8,2.4,1.3c1.2,0.6,2.4,1.3,3.6,1.9
			C162.8,61.5,164,62.1,165.2,62.8z"/>
		<path id="XMLID_8_" class="st3" d="M124.7,98c-1.9,2.5-3.8,5-5.6,7.6l-3.4-12.8L124.7,98z"/>
	</g>
	<g id="XMLID_26_">
		<g id="XMLID_36_">
			<path id="XMLID_7_" class="st4" d="M26.2,47.8c-1,0-2-0.2-2.9-0.8l-3.4-1.9c-2.8-1.6-3.8-5.2-2.2-8c1.6-2.8,5.2-3.8,8-2.2
				l3.4,1.9c2.8,1.6,3.8,5.2,2.2,8C30.3,46.7,28.3,47.8,26.2,47.8z"/>
		</g>
		<g id="XMLID_29_">
			<path id="XMLID_30_" class="st4" d="M149.3,118c-1,0-2-0.2-2.9-0.8l-7-4c-2.8-1.6-3.8-5.2-2.2-8c1.6-2.8,5.2-3.8,8-2.2l7,4
				c2.8,1.6,3.8,5.2,2.2,8C153.3,116.9,151.3,118,149.3,118z M124.7,103.9c-1,0-2-0.2-2.9-0.8l-7-4c-2.8-1.6-3.8-5.2-2.2-8
				c1.6-2.8,5.2-3.8,8-2.2l7,4c2.8,1.6,3.8,5.2,2.2,8C128.7,102.9,126.7,103.9,124.7,103.9z M100.1,89.9c-1,0-2-0.2-2.9-0.8l-7-4
				c-2.8-1.6-3.8-5.2-2.2-8c1.6-2.8,5.2-3.8,8-2.2l7,4c2.8,1.6,3.8,5.2,2.2,8C104.1,88.8,102.1,89.9,100.1,89.9z M75.5,75.9
				c-1,0-2-0.2-2.9-0.8l-7-4c-2.8-1.6-3.8-5.2-2.2-8c1.6-2.8,5.2-3.8,8-2.2l7,4c2.8,1.6,3.8,5.2,2.2,8
				C79.5,74.8,77.5,75.9,75.5,75.9z M50.9,61.8c-1,0-2-0.2-2.9-0.8l-7-4c-2.8-1.6-3.8-5.2-2.2-8c1.6-2.8,5.2-3.8,8-2.2l7,4
				c2.8,1.6,3.8,5.2,2.2,8C54.9,60.8,52.9,61.8,50.9,61.8z"/>
		</g>
		<g id="XMLID_27_">
			<path id="XMLID_1_" class="st4" d="M170.3,129.9c-1,0-2-0.2-2.9-0.8l-3.4-1.9c-2.8-1.6-3.8-5.2-2.2-8c1.6-2.8,5.2-3.8,8-2.2
				l3.4,1.9c2.8,1.6,3.8,5.2,2.2,8C174.3,128.9,172.3,129.9,170.3,129.9z"/>
		</g>
	</g>
</g>
</svg>
